<svg width="1440" height="99" viewBox="0 0 1440 99" fill="none" xmlns="http://www.w3.org/2000/svg">
<g clip-path="url(#clip0_364_642)">
<path fill-rule="evenodd" clip-rule="evenodd" d="M0 22L60 19.8333C120 17.6667 240 13.3333 360 15.5C480 17.6667 600 26.3333 720 39.3333C840 52.3333 960 69.6667 1080 65.3333C1200 61 1320 35 1380 22L1440 9V100H1380C1320 100 1200 100 1080 100C960 100 840 100 720 100C600 100 480 100 360 100C240 100 120 100 60 100H0V22Z" fill="#CFC665" fill-opacity="0.6"/>
<path fill-rule="evenodd" clip-rule="evenodd" d="M1440 60.4444L1380 62.2963C1320 64.1481 1200 67.8519 1080 73.4074C960 78.963 840 86.3704 720 78.963C600 71.5556 480 49.3333 360 36.3704C240 23.4074 120 19.7037 59.9999 17.8519L-5.72205e-05 16V116H59.9999C120 116 240 116 360 116C480 116 600 116 720 116C840 116 960 116 1080 116C1200 116 1320 116 1380 116H1440V60.4444Z" fill="#494623"/>
</g>
<defs>
<clipPath id="clip0_364_642">
<rect width="1440" height="99" fill="white" transform="matrix(-1 0 0 1 1440 0)"/>
</clipPath>
</defs>
</svg>
